<?xml version="1.0" encoding="utf-8"?>
<!-- Generator: Adobe Illustrator 23.0.4, SVG Export Plug-In . SVG Version: 6.00 Build 0)  -->
<svg version="1.1" id="Livello_1" xmlns="http://www.w3.org/2000/svg" xmlns:xlink="http://www.w3.org/1999/xlink" x="0px" y="0px"
	 viewBox="0 0 695.72 353.75" style="enable-background:new 0 0 695.72 353.75;" xml:space="preserve">
<style type="text/css">
	.st0{fill:#555453;}
	.st1{fill:url(#SVGID_1_);}
</style>
<g>
	<g>
		<g>
			<path class="st0" d="M324.46,235.19c0.6-1.5,0.6-3.1-0.1-4.5l0,0c-0.6-1.5-1.8-2.6-3.2-3.2c-1.5-0.6-3.1-0.6-4.6,0
				s-2.6,1.8-3.2,3.2l-22.6,56.7l-23.6-56.7c-0.9-2.3-3.2-3.6-5.5-3.6c-0.8,0-1.5,0.1-2.3,0.5c-1.5,0.6-2.7,1.8-3.3,3.3
				c-0.6,1.5-0.6,3.1,0,4.5l28.9,69.5c0.3,0.8,0.9,1.6,1.4,2l0.2,0.2c0.6,0.7,1.4,1.2,2.2,1.5c3,1.2,6.6-0.4,7.8-3.4L324.46,235.19z
				"/>
			<path class="st0" d="M541.66,226.69c-22.7,0-41.2,18.5-41.2,41.2s18.5,41.2,41.2,41.2s41.2-18.5,41.2-41.2
				C582.86,245.09,564.36,226.69,541.66,226.69z M541.66,296.39c-15.7,0-28.6-12.8-28.6-28.6c0-15.7,12.8-28.6,28.6-28.6
				c15.7,0,28.6,12.8,28.6,28.6C570.26,283.59,557.46,296.39,541.66,296.39z"/>
			<path class="st0" d="M467.16,183.79c-3.6,0-6.4,2.7-6.4,6.2v112.6c0,3.6,2.8,6.4,6.4,6.4c3.5,0,6.2-2.8,6.2-6.4v-112.6
				C473.36,186.59,470.56,183.79,467.16,183.79z"/>
			<path class="st0" d="M229.46,267.79c0-22.7-18.5-41.2-41.2-41.2s-41.2,18.5-41.2,41.2s18.5,41.2,41.2,41.2
				c9.1,0,17.7-2.9,24.9-8.5l3.6-2.8v4.9c0,3.6,2.8,6.4,6.4,6.4c3.5,0,6.2-2.8,6.2-6.4v-33.7c0,0,0-0.1,0-0.3c0-0.3,0-0.4,0-0.6
				L229.46,267.79z M188.26,296.39c-15.7,0-28.6-12.8-28.6-28.6c0-15.7,12.8-28.6,28.6-28.6c15.7,0,28.6,12.8,28.6,28.6
				C216.86,283.59,204.06,296.39,188.26,296.39z"/>
			<path class="st0" d="M652.16,226.69c-22.7,0-41.2,18.5-41.2,41.2v77.7c0,3.5,2.8,6.2,6.4,6.2c3.4,0,6.2-2.8,6.2-6.2v-47.6
				l3.6,2.8c7.1,5.4,15.9,8.4,24.9,8.4c22.7,0,41.2-18.5,41.2-41.2C693.36,245.09,674.86,226.69,652.16,226.69z M652.16,296.39
				c-15.7,0-28.6-12.7-28.6-28.4c0-15.9,12.8-28.7,28.6-28.7s28.6,12.8,28.6,28.6C680.66,283.59,667.86,296.39,652.16,296.39z"/>
			<path class="st0" d="M433.56,268.09v-0.2c0-0.3,0-0.6,0-0.9c-0.4-22.5-18.4-40.3-41.1-40.3s-41.2,18.5-41.2,41.2
				s18.5,41.2,41.2,41.2c10.6,0,20.7-4.1,28.5-11.6l0.2-0.2c0.3-0.3,0.7-0.6,1-0.9l0.1-0.1c0.6-0.8,1.4-2.1,1.4-3.8
				c0-3.5-2.7-6.2-6.1-6.2h-0.5c-2.2,0-3.9,1.4-5.9,3.1l-0.6,0.5c-0.7,0.5-1.4,1.1-2.1,1.6c-1.4,1-2.9,1.8-4.5,2.5
				c-3.2,1.4-6.6,2.3-10.1,2.4c-12.6,0.7-24.3-7.2-28.5-19.2l-1-3h63.4C431.06,273.89,433.56,271.29,433.56,268.09z M364.46,261.49
				l1-3c4-11.5,14.8-19.3,27-19.3s23,7.7,27,19.3l1,3H364.46z"/>
			<path class="st0" d="M119.96,276.69v-43.6c0-3.6-2.8-6.4-6.4-6.4c-3.5,0-6.2,2.8-6.2,6.4v43.6c0,10.9-8.9,19.7-19.9,19.7
				c-10.9,0-19.7-8.9-19.7-19.7v-43.6c0-3.5-2.9-6.4-6.4-6.4s-6.2,2.8-6.2,6.4v43.6c0,10.9-8.9,19.7-19.9,19.7s-19.9-8.9-19.9-19.7
				v-43.6c0-3.6-2.7-6.4-6.2-6.4s-6.4,2.9-6.4,6.4v42v1.9c0.3,17.7,14.7,32,32.5,32c9.4,0,18.3-4.1,24.4-11.2l1.7-2l1.7,2
				c6.1,7.1,15,11.2,24.4,11.2C105.36,308.99,119.96,294.49,119.96,276.69z"/>
		</g>
		
			<linearGradient id="SVGID_1_" gradientUnits="userSpaceOnUse" x1="218.6983" y1="1146.1946" x2="495.5462" y2="1146.1946" gradientTransform="matrix(1 0 0 -1 -8.3622 1225.4316)">
			<stop  offset="0" style="stop-color:#28316F"/>
			<stop  offset="0.3157" style="stop-color:#454B9A"/>
			<stop  offset="0.6832" style="stop-color:#47A4DC"/>
			<stop  offset="1" style="stop-color:#54BFD0"/>
		</linearGradient>
		<path class="st1" d="M473.46,13.19l-4.3-3.3c-6.3-4.9-13.9-7.5-21.9-7.5c-11.1,0-21.4,5-28.2,13.7l-15,19.2c-1,1.3-1.5,3-1.3,4.7
			s1.1,3.2,2.4,4.2c1.1,0.9,2.5,1.3,3.9,1.3c2,0,3.8-0.9,5-2.4l15-19.2c4.4-5.6,11-8.9,18.2-8.9c5.2,0,10.1,1.7,14.2,4.9l4.3,3.3
			c4.9,3.8,8,9.2,8.7,15.4c0.8,6.1-0.9,12.2-4.7,17l-21.7,27.7c-5.1,6.6-12.2,8-17.2,8c-0.6,0-1.2,0-1.7-0.1
			c-7.3-0.4-13.7-4.4-20.7-12.9c-0.5-0.6-0.9-1.1-1.4-1.7l-47.2-60.5c-6.8-8.7-17.1-13.7-28.2-13.7c-8,0-15.6,2.6-21.9,7.5l-4.3,3.3
			c-6.9,5.4-11.3,12.8-13,20.8l-14-17.9c-6.8-8.7-17.1-13.7-28.2-13.7c-8,0-15.6,2.6-21.9,7.5l-4.3,3.3
			c-15.5,12.1-18.3,34.6-6.2,50.1l61.6,79c5.9,7.5,14.3,12.3,23.8,13.5c1.5,0.2,3,0.3,4.5,0.3c8,0,15.5-2.6,21.9-7.5l4.3-3.3
			c6.7-5.2,11.2-12.6,13-20.8l14,17.9c6.8,8.7,17.1,13.7,28.2,13.7c8,0,15.6-2.6,21.9-7.5c3.1-2.4,5.4-4.5,7.3-6.7
			c2.3-2.6,5-6,5.9-10.1c0.4-1.6,0.1-3.3-0.8-4.8c-0.9-1.4-2.3-2.4-3.9-2.8c-0.5-0.1-1-0.2-1.5-0.2c-2.9,0-5.5,2-6.1,4.9
			c-0.3,1-1.3,2.6-3.1,4.7c-1.4,1.6-3.1,3.2-5.6,5.1c-4.1,3.2-9,4.9-14.2,4.9c-7.2,0-13.8-3.2-18.2-8.9l-30.1-38.7
			c-0.2-0.3-0.4-0.5-0.6-0.8l-31.4-40.4c-7.1-10-5.2-24,4.6-31.6l4.3-3.3c4.1-3.2,9-4.9,14.2-4.9c7.2,0,13.8,3.2,18.2,8.9l47,60.5
			c0.5,0.7,1,1.3,1.6,2c9.1,11.1,18.8,16.9,29.7,17.5c0.8,0,1.7,0.1,2.5,0.1c11.1,0,20.7-4.6,27.2-12.9l21.6-27.8
			C491.76,47.79,488.96,25.29,473.46,13.19z M330.06,139.39v1.7v0.8v-0.8l0,0v-0.9v-1.7l0,0V139.39z M326.16,135.29l-4.3,3.3
			c-4.1,3.2-9,4.9-14.1,4.9c-1,0-1.9-0.1-2.9-0.2c-6.1-0.8-11.6-3.9-15.4-8.7l-61.6-79c-7.8-10-6-24.6,4-32.4l4.3-3.3
			c4.1-3.2,9-4.9,14.2-4.9c7.2,0,13.8,3.2,18.2,8.9l30.1,38.7c0.2,0.3,0.4,0.5,0.6,0.8l31.4,40.4
			C337.86,113.69,335.96,127.69,326.16,135.29z"/>
	</g>
</g>
</svg>
